<svg width="32" height="34" viewBox="0 0 32 34" fill="none" xmlns="http://www.w3.org/2000/svg">
<path d="M12.4418 1.71371C12.953 1.30025 13.6707 1.06563 13.9656 1H16.6937C17.6522 1 17.9226 1.17228 18.4141 1.27072C18.9057 1.36916 18.9057 1.46761 19.2498 1.63988C19.5938 1.81216 19.3726 1.81216 19.7167 1.88599C20.0608 1.95982 19.8888 1.93521 20.3066 2.3782C20.7244 2.8212 20.6261 2.8212 20.8965 3.21497C21.1127 3.52999 21.4945 3.88767 21.6584 4.02713C21.7485 4.04353 22.0418 4.16003 22.494 4.49473C23.0593 4.91312 23.133 5.23306 23.4771 5.72527C23.8212 6.21749 23.8703 6.4636 24.1161 6.95581C24.3619 7.44803 24.3373 8.08791 24.4111 8.38324C24.4848 8.67857 24.6322 8.7524 24.8289 9.02312C25.0255 9.29384 25.1975 10.4998 25.2958 11.4842C25.3745 12.2717 25.3286 12.8788 25.2958 13.0839C25.3368 13.0593 25.4433 13.079 25.5416 13.3546C25.6645 13.6992 25.5416 13.9945 25.5416 14.216C25.5416 14.4375 25.6645 14.339 25.6645 14.659C25.6645 14.9789 25.7874 14.659 25.812 15.225C25.8365 15.7911 25.6645 16.5048 25.6645 16.874C25.6645 17.2431 25.812 17.5385 25.9103 17.9568C26.0086 18.3752 25.9594 20.6886 25.9103 20.9347C25.8611 21.1808 25.8365 21.0332 25.6645 21.4023C25.4925 21.7715 25.6399 21.7469 25.4187 22.1653C25.1975 22.5837 25.4187 22.8544 25.1975 23.1497C24.9763 23.445 25.0992 23.7158 24.9518 24.1834C24.8043 24.651 24.5585 24.5279 24.5339 24.9217C24.5094 25.3155 24.2636 26.3245 23.9195 26.4476C23.6442 26.546 23.4116 27.0956 23.3296 27.3582C23.1002 27.8504 22.5874 28.9037 22.3711 29.1794C22.1008 29.5239 21.7321 29.7208 21.5355 29.8685C21.3389 30.0161 21.6338 30.1146 21.5355 30.5083C21.4372 30.9021 21.1914 30.9759 20.9948 31.1236C20.7981 31.2713 21.0193 31.2959 20.8965 31.542C20.7736 31.7881 19.6922 32.6741 18.9794 32.7971C18.2667 32.9202 16.7674 32.7971 16.2759 32.7971C15.7843 32.7971 15.9318 32.8956 15.5877 32.9694C15.2436 33.0433 14.7766 32.9694 14.2605 32.8956C13.8476 32.8365 12.3517 31.903 11.6553 31.4435C10.9671 31.0662 9.5662 30.1933 9.46789 29.7208C9.345 29.1301 8.92718 28.1949 8.70598 27.8012C8.48478 27.4074 7.84577 26.7429 7.6983 26.6691C7.55083 26.5952 7.01013 25.2909 6.86266 24.5525C6.7152 23.8142 6.88724 23.7404 6.86266 23.4697C6.83809 23.1989 6.44484 23.1251 6.56773 23.002C6.69062 22.879 6.44484 22.0176 6.44484 21.1808C6.44484 20.3441 6.2728 20.2456 6.19907 19.7288C6.12534 19.212 6.37111 19.0151 6.37111 18.6213C6.37111 18.2276 6.10076 18.3506 6.10076 17.9814C6.10076 17.6123 5.97787 16.8493 6.10076 16.431C6.22365 16.0126 6.2728 16.3571 6.37111 15.9634C6.46942 15.5696 6.34654 14.9789 6.44484 14.5359C6.54315 14.0929 6.56773 14.2406 6.56773 13.9453C6.56773 13.6499 6.56773 13.6746 6.44484 13.4284C6.32196 13.1823 6.39569 12.764 6.56773 12.444C6.66604 12.1733 6.54316 11.7303 6.56773 11.2873C6.59231 10.8443 6.76435 10.9428 6.86266 10.6474C6.96097 10.3521 6.73978 10.4013 6.86266 10.0568C6.98555 9.71222 7.08386 9.93372 7.23133 9.61378C7.3493 9.35782 7.28048 9.26102 7.23133 9.24462C7.2641 9.14617 7.37388 8.77701 7.55084 8.08791C7.77203 7.22653 8.23901 6.68509 8.41105 6.38976C8.54869 6.1535 8.91079 5.89755 9.07465 5.7991C9.48427 5.42174 10.3527 4.57349 10.5493 4.1994C10.7951 3.7318 10.6722 3.95329 10.7213 3.60874C10.7705 3.26419 10.7705 3.46108 10.9917 3.19036C11.2129 2.91964 11.1637 3.19036 11.3112 2.91964C11.4587 2.64892 11.262 2.74737 11.4587 2.47665C11.6553 2.20593 11.8028 2.23054 12.4418 1.71371Z" fill="#B5EA11" stroke="#0F8A0D" stroke-width="0.5"/>
<path d="M14.2127 19.2821C14.37 20.6013 16.0642 22.4077 16.8916 23.146C16.6704 23.105 16.1543 23.0082 15.8594 22.9491C15.4907 22.8753 15.2203 22.8261 15.0483 22.6292C14.8763 22.4323 14.8271 22.5061 14.4093 22.3339C13.9915 22.1616 13.7211 21.1772 13.6474 20.7834C13.5736 20.3896 13.4999 20.6111 13.4262 20.365C13.3524 20.1189 13.1804 20.1681 13.0084 19.7497C12.8363 19.3314 13.1067 17.6824 13.1067 17.0426C13.1067 16.5306 13.4671 15.2542 13.6474 14.6799C13.6965 14.483 13.7899 14.045 13.7703 13.8678C13.7506 13.6906 13.5818 13.8596 13.4999 13.9662C13.4508 14.1303 13.3524 14.4683 13.3524 14.5076C13.3524 14.5569 13.2787 14.7784 13.1804 14.7784C13.0821 14.7784 13.205 14.6799 13.1804 14.4092C13.1607 14.1926 13.6965 13.1869 13.9669 12.7111C13.9997 12.5634 14.0947 12.2681 14.2127 12.2681C14.3601 12.2681 14.8271 11.3575 14.7534 11.259C14.6796 11.1606 14.5322 11.1852 14.3847 11.259C14.2372 11.3328 13.6965 11.5297 13.3524 11.9235C13.0084 12.3173 12.6643 13.1294 12.5414 13.2771C12.4185 13.4248 12.5414 13.1294 12.3448 13.1294C12.1481 13.1294 12.271 13.5478 12.0498 13.6955C11.8286 13.8431 11.9024 13.6955 11.8041 13.7693C11.7057 13.8431 11.6074 14.9999 11.5337 15.5413C11.46 16.0827 11.5583 17.6824 11.5337 17.8055C11.5091 17.9285 11.3862 17.9778 11.3617 17.6824C11.3371 17.3871 11.2142 17.2148 11.2142 16.9195C11.2142 16.6242 11.2142 16.6488 11.1159 16.6242C11.0176 16.5996 11.0176 16.7718 11.0176 16.9195C11.0176 17.0672 11.0176 17.5594 11.1159 17.8055C11.2142 18.0516 11.0176 18.7899 11.0176 19.036C11.0176 19.2821 11.3862 20.4881 11.2142 20.7096C11.0422 20.9311 11.1405 21.3494 11.2142 22.1862C11.2732 22.8556 11.7795 24.434 12.0253 25.1395C12.14 25.3446 12.3988 25.7351 12.5168 25.6563C12.6643 25.5579 12.5414 25.4102 12.5168 25.3364C12.4922 25.2626 12.1727 24.475 12.0253 24.2781C11.9073 24.1206 11.7959 23.4578 11.7549 23.146C12.0253 23.589 12.6692 24.6473 13.0821 25.3364C13.5982 26.1978 14.7779 27.256 14.8763 27.1576C14.9746 27.0591 15.3187 27.1576 15.4415 27.1576C15.5644 27.1576 16.5475 27.6252 17.0637 27.7729C17.5798 27.9205 17.8747 27.4775 18.0468 27.4037C18.2188 27.3299 18.9807 27.256 19.0299 27.1576C19.079 27.0591 19.3494 26.7638 19.546 26.6408C19.7426 26.5177 20.4799 25.804 20.5291 25.7548C20.5783 25.7055 20.6028 25.5579 20.5291 25.4102C20.4554 25.2626 20.3325 25.5579 20.2587 25.6563C20.185 25.7548 19.5214 26.2962 19.2756 26.247C19.0299 26.1978 18.7595 26.6408 18.3663 26.8376C17.973 27.0345 17.1865 26.813 16.7933 26.8376C16.4787 26.8573 16.7278 27.1248 16.8916 27.256C16.8425 27.3299 16.7048 27.4332 16.5475 27.256C16.3509 27.0345 15.9577 26.9115 15.6873 26.6408C15.417 26.37 14.8763 26.4439 14.7042 26.4685C14.5322 26.4931 13.6965 25.5579 13.8932 25.5579C14.0898 25.5579 14.7779 26.0255 14.7779 25.7548V25.3364C14.8844 25.4102 15.2498 25.6514 15.8594 26.0255C16.6213 26.4931 17.8256 26.2716 18.0468 26.1732C18.268 26.0747 18.6858 25.6563 19.1773 25.5579C19.6689 25.4594 20.6028 24.5981 20.7749 24.4258C20.9125 24.288 21.0125 24.3684 21.0452 24.4258C21.0452 24.5899 21.0551 24.9131 21.0944 24.8934C21.1435 24.8688 21.291 24.6473 21.291 24.475C21.291 24.3027 21.6105 23.6136 21.6351 23.5398C21.6597 23.466 21.8071 23.2691 22.0283 23.2937C22.2053 23.3134 22.184 23.5152 22.1512 23.6136C22.1348 23.6546 22.0627 23.845 21.9054 24.2781C21.7088 24.8196 21.9792 25.361 21.8071 25.6563C21.6351 25.9517 20.8486 26.4193 20.7749 26.5669C20.7011 26.7146 20.9715 26.9115 20.9469 27.0099C20.9223 27.1084 20.6766 27.3299 20.4062 27.256C20.1359 27.1822 19.9638 27.3791 20.013 27.4775C20.0621 27.576 20.3816 27.6252 20.4062 27.7729C20.4308 27.9205 19.8409 28.1912 19.3494 28.5112C18.8578 28.8311 16.7441 28.2897 16.7933 28.3881C16.8326 28.4669 16.908 28.585 16.9408 28.6342C16.8425 28.6506 16.6065 28.6835 16.4492 28.6835C16.2919 28.6835 16.1051 29.0772 16.0314 29.2741C15.9986 29.2823 15.8348 29.1757 15.4415 28.6835C14.95 28.0682 13.6965 28.0436 13.5736 27.8713C13.4508 27.699 13.844 27.7482 12.91 27.1576C11.9761 26.5669 10.7226 25.1149 10.7964 24.8196C10.8554 24.5833 10.313 23.8515 10.0345 23.5152C9.99351 23.5152 9.92141 23.5939 9.96074 23.909C10.0001 24.224 10.1574 24.3848 10.2311 24.4258C10.2229 24.5899 10.1721 24.8983 10.0345 24.8196C9.86243 24.7211 9.22341 23.6629 9.22341 23.4414C9.22341 23.2199 9.51834 22.2354 9.22341 22.0385C8.98747 21.881 8.87933 21.5135 8.85475 21.3494C9.00221 21.2428 9.25782 20.9212 9.10052 20.4881C8.9039 19.9466 8.60897 18.5684 8.55982 18.3961C8.51066 18.2239 8.73186 17.1902 9.05137 16.7718C9.30697 16.4371 9.43642 15.4511 9.46919 14.9999C9.46919 15.1475 9.48393 15.4822 9.54292 15.6397C9.61665 15.8366 9.76412 15.812 9.81327 15.3198C9.8526 14.926 10.7964 12.9572 11.2633 12.0219C11.1814 11.9235 11.0667 11.6872 11.2633 11.5297C11.46 11.3722 11.7057 11.3985 11.8041 11.4313C11.7385 11.6364 11.5681 12.0712 11.4108 12.1696C11.2535 12.2681 10.9193 13.0146 10.7718 13.3755C10.7308 13.6381 10.6735 14.1483 10.7718 14.0893C10.8947 14.0154 10.9193 13.9662 11.0176 13.6217C11.1159 13.2771 11.7795 12.2681 11.9024 12.1696C12.0253 12.0712 12.1973 12.3911 12.3448 12.3911C12.4922 12.3911 12.3448 12.0712 12.271 11.9235C12.212 11.8054 12.099 11.8743 12.0498 11.9235V11.259C12.0498 10.9145 12.3448 10.7914 12.5414 10.4961C12.6987 10.2598 12.8035 9.70853 12.8363 9.46243C12.7954 9.37219 12.679 9.2114 12.5414 9.29015C12.3693 9.38859 12.4185 9.93003 12.3939 9.97925C12.3693 10.0285 12.1973 10.1023 12.0498 10.1515C11.9024 10.2008 11.9761 9.93003 12.0007 9.73315C12.0253 9.53626 12.1973 9.53626 12.3448 9.4132C12.4627 9.31476 12.2956 9.09326 12.1973 8.99482C12.1973 8.89638 12.2268 8.64043 12.3448 8.40416C12.4922 8.10883 13.2787 7.39512 13.4016 7.17362C13.5245 6.95213 13.1558 6.9029 13.0821 6.77985C13.0084 6.6568 13.2296 6.68141 13.4508 6.26302C13.672 5.84464 14.3601 5.50009 14.2864 5.3032C14.2274 5.14569 13.9997 5.08991 13.8931 5.08171C14.0242 5.0653 14.3257 5.04233 14.483 5.08171C14.6796 5.13093 15.4661 5.10632 15.7365 5.03248C16.0068 4.95865 16.6704 5.7462 16.7196 5.5247C16.7589 5.3475 16.3427 5.02428 16.1297 4.88482C16.2772 4.89302 16.5918 4.91435 16.6704 4.93404C16.7687 4.95865 16.7687 5.03248 16.7687 5.13093C16.7687 5.22937 17.0882 5.37704 17.0145 5.3032C16.9408 5.22937 17.0145 4.93404 17.162 4.78638C17.3094 4.63871 18.5875 4.88482 18.6612 5.03248C18.7349 5.18015 18.4646 5.0571 18.3908 5.08171C18.3171 5.10632 17.973 5.00787 18.9807 5.59853C19.9884 6.18919 19.9638 6.55835 20.5537 7.1244C21.1435 7.69045 21.7088 10.0285 21.7826 10.25C21.8563 10.4715 22.1266 11.3328 22.2495 11.5297C22.3724 11.7266 22.3724 12.3419 22.397 12.6126C22.4216 12.8833 22.2495 12.7603 22.2495 13.031C22.2495 13.3017 22.3233 13.474 22.2495 13.6955C22.1758 13.917 22.0283 13.7201 21.9792 13.6217C21.93 13.5232 22.0037 12.7111 21.9792 12.6126C21.9546 12.5142 21.8071 11.4313 21.7826 11.1114C21.7629 10.8554 21.6597 10.8899 21.6105 10.9391C21.5695 11.0457 21.4876 11.3132 21.4876 11.5297C21.4876 11.8005 21.4876 12.9572 21.3647 13.031C21.2418 13.1048 21.2173 13.1294 21.2664 13.2771C21.3156 13.4248 21.3647 13.4248 21.4876 13.474C21.6105 13.5232 21.5122 13.7939 21.5614 14.1631C21.6105 14.5322 21.5614 15.0491 21.5614 15.1475C21.5614 15.246 21.4139 15.4428 21.5614 15.5413C21.7088 15.6397 21.6351 15.5413 21.7088 15.5413C21.7826 15.5413 21.7334 15.7382 21.7088 15.9597C21.6842 16.1812 21.6597 16.5011 21.6351 16.5503C21.6105 16.5996 21.4876 16.9195 21.4139 16.8457C21.3402 16.7718 21.3647 16.4519 21.3647 16.3534C21.3647 16.255 21.2664 16.2796 21.2173 16.5011C21.1681 16.7226 20.9469 16.9933 20.9469 16.9195C20.9469 16.8457 20.8732 15.689 20.9469 15.4428C21.0206 15.1967 20.9223 13.5232 20.9469 13.1294C20.9715 12.7357 20.7503 12.6864 20.5291 12.2681C20.3521 11.9334 20.4554 11.6364 20.5291 11.5297C20.611 11.6692 20.8289 12.0367 21.0452 12.3911C21.2615 12.7455 21.2828 12.6372 21.2664 12.5388C21.2009 12.0384 21.0649 10.9735 21.0452 10.7176C21.0206 10.3976 20.5537 9.36398 20.4554 9.33937C20.3571 9.31476 20.4062 9.4132 20.1604 9.19171C19.9147 8.97021 19.2511 7.98578 18.9807 7.64123C18.7104 7.29668 17.8747 6.85368 17.6535 6.77985C17.4323 6.70602 16.7196 6.13997 16.4738 5.86925C16.2772 5.65268 15.9659 5.59853 15.8348 5.59853C15.7938 5.57392 15.7807 5.60346 16.056 5.91847C16.3312 6.23349 16.5803 6.36147 16.6704 6.38608C16.6704 6.41889 16.6311 6.49929 16.4738 6.55835C16.2772 6.63219 15.122 6.6568 14.7779 6.77985C14.4339 6.9029 14.3355 7.1244 14.1389 7.39512C13.9423 7.66584 13.4999 8.13344 13.7211 7.98578C13.9423 7.83811 14.7042 7.5674 14.9746 7.54278C15.2449 7.51817 15.122 7.64123 15.3186 7.76428C15.4759 7.86273 16.2854 8.08422 16.6704 8.18267C16.7114 8.2647 16.7196 8.3894 16.4246 8.23189C16.056 8.035 15.3186 8.08422 15.122 8.13344C14.9254 8.18267 15.1466 8.40416 15.122 8.478C15.0975 8.55183 14.5813 8.7241 14.4584 8.77332C14.3355 8.82255 14.2127 8.92099 14.2864 8.99482C14.3601 9.06865 14.4093 8.99482 14.483 9.01943C14.5567 9.04404 14.5076 9.14249 14.4584 9.19171C14.4093 9.24093 14.016 9.31476 13.8931 9.29015C13.7703 9.26554 13.7948 9.1671 13.7211 9.19171C13.6474 9.21632 13.672 9.26554 13.6228 9.4132C13.5736 9.56087 13.1804 9.80698 13.0084 10.0285C12.8707 10.2057 12.951 10.414 13.0084 10.4961C13.0985 10.3484 13.3131 10.0285 13.4508 9.93003C13.6228 9.80698 14.8025 9.24093 15.5398 9.19171C16.2772 9.14249 16.8916 9.41321 17.0145 9.46243C17.1374 9.51165 17.334 9.8562 17.162 9.80698C16.9899 9.75776 16.7933 9.78237 16.4738 9.80698C16.1543 9.83159 16.228 9.97925 16.228 10.1023C16.228 10.2254 16.2772 10.25 16.6704 10.4961C17.0637 10.7422 17.6289 10.8652 17.801 10.9883C17.973 11.1113 18.8578 12.0712 18.6858 12.2681C18.5137 12.4649 18.5875 12.4403 18.5137 12.6126C18.44 12.7849 18.5629 13.1294 18.6366 13.3755C18.7104 13.6217 18.6366 13.7201 18.7595 14.0893C18.8824 14.4584 18.907 14.1877 19.0299 14.7291C19.1528 15.2706 19.0053 16.2796 18.9807 16.6242C18.9561 16.9687 18.7841 17.4609 18.5137 17.9778C18.2434 18.4946 17.4815 18.7899 17.334 18.7899C17.1865 18.7899 17.0145 18.7899 16.7441 18.47C16.5279 18.214 16.3099 17.5102 16.228 17.1902C16.1952 17.0836 16.1494 16.8506 16.228 16.7718C16.3263 16.6734 16.4492 16.698 16.523 16.7718C16.5967 16.8457 16.6458 17.264 16.6704 17.4855C16.695 17.707 17.0637 18.1993 17.4323 18.15C17.801 18.1008 18.1451 17.8055 18.2434 17.6824C18.3417 17.5594 18.6858 16.3781 18.4154 16.255C18.1451 16.132 17.8993 15.5413 17.8256 15.4428C17.7518 15.3444 17.8256 14.7784 17.8993 14.7784C17.9583 14.7784 18.0386 14.6471 18.0713 14.5815L18.1451 13.9662L18.2434 14.36C18.268 14.4584 18.2925 15.0737 18.2925 15.1475C18.2925 15.2214 18.3663 15.4428 18.5137 15.5413C18.6612 15.6397 18.612 15.6643 18.7595 15.6397C18.907 15.6151 18.7595 15.3198 18.7595 14.9999C18.7595 14.6799 18.2925 13.6217 18.1451 13.6217C17.9976 13.6217 17.8256 13.5232 17.6289 13.4248C17.4323 13.3263 17.3586 13.3263 16.9408 13.4248C16.523 13.5232 16.5721 13.8924 16.6704 13.9662C16.7687 14.04 16.867 14.1631 16.6704 14.2615C16.5131 14.3403 16.5393 14.6389 16.5721 14.7784C16.6704 14.7455 16.8965 14.6455 17.0145 14.5076C17.1325 14.3698 17.2439 14.3846 17.2849 14.4092C17.334 14.4994 17.4569 14.7291 17.5552 14.926C17.6781 15.1721 17.5552 15.812 17.6289 15.812C17.7027 15.812 17.9484 16.1073 17.9976 16.132C18.0468 16.1566 18.0222 16.2304 17.9976 16.2796C17.9779 16.319 17.9239 16.296 17.8993 16.2796L17.7027 16.1566C17.6781 16.132 17.6289 16.1172 17.6289 16.255C17.6289 16.4273 17.7027 16.4273 17.6289 16.5011C17.57 16.5602 17.375 16.5257 17.2849 16.5011C17.2275 16.5093 17.1472 16.5602 17.2849 16.698C17.4569 16.8703 17.4323 16.9441 17.4323 17.0426C17.4323 17.1213 17.3832 17.1902 17.3586 17.2148C17.3668 17.2148 17.393 17.2394 17.4323 17.3379C17.4815 17.4609 17.9239 17.7809 17.8256 17.8055C17.7273 17.8301 17.3586 17.8055 17.0637 17.5594C16.7687 17.3133 16.8425 16.7718 16.867 16.698C16.8867 16.6389 17.0391 16.6406 17.1128 16.6488C17.0964 16.5831 17.0735 16.4371 17.1128 16.3781C17.1521 16.319 17.1947 16.337 17.2111 16.3534C17.2275 16.3124 17.2603 16.2107 17.2603 16.132C17.2603 16.0532 17.1292 16.0335 17.0637 16.0335C16.9572 16.0253 16.7097 15.9991 16.5721 15.9597C16.4001 15.9105 16.2526 15.4675 16.1789 15.3198C16.1051 15.1721 16.3755 14.9752 16.3755 14.926C16.3755 14.8768 16.3755 14.8276 16.1789 14.7784C16.0314 14.7291 15.761 14.9014 15.5398 15.1475C15.3186 15.3936 15.3186 15.6643 15.2203 16.0089C15.1417 16.2845 14.9254 16.5503 14.8271 16.6488C14.7697 16.6734 14.6305 16.7078 14.5322 16.6488C14.4093 16.5749 14.5322 16.255 14.5322 16.0089C14.5322 15.812 14.7779 15.0409 14.9008 14.6799C14.9172 14.6225 14.9254 14.4978 14.8271 14.4584C14.7288 14.419 14.6714 14.524 14.6551 14.5815C14.5977 14.7127 14.4289 15.1426 14.2127 15.812C13.9423 16.6488 14.016 17.6332 14.2127 19.2821Z" fill="#0F8A0D"/>
</svg>
