<svg width="291" height="288" viewBox="0 0 291 288" fill="none" xmlns="http://www.w3.org/2000/svg">
<path d="M0 147H20.5C18.5 167.5 26.5 201.5 57 232.5C87.5 263.5 136.5 270.5 168 265.5C199.5 260.5 214.738 248.746 239.5 224.5C263.5 201 271 159.5 268 135C263.422 97.6162 246.5 73.5 227 56C207.5 38.5 178.5 29.5 160 27C134.031 23.4906 103.5 30.5 89 39L114 61.5L24.5 87L47 0L73 24C73 24 77 22.3571 77.5 22C83.603 17.6407 108.5 8.99999 137.5 5.99999C166.5 2.99999 202.5 15 231.5 34C260.5 53 281 85 288.5 130C296 175 275.5 214 255 238.5C234.5 263 198.5 281 168 286C137.5 291 100.5 283 75 270.5C49.5 258 29.5 233 15.5 211C4.3 193.4 0.5 161 0 147Z" fill="#E6EDF2"/>
</svg>
